<svg id="patient" xmlns="http://www.w3.org/2000/svg" width="101.763" height="101.763" viewBox="0 0 101.763 101.763">
  <path id="Path_1715" data-name="Path 1715" d="M230.565,32h-3.283v3.283H224v3.283h3.283v3.283h3.283V38.565h3.283V35.283h-3.283Zm0,0" transform="translate(-178.043 -25.435)" fill="#00274a"/>
  <path id="Path_1716" data-name="Path 1716" d="M55.805,32.827V26.261h3.283a3.286,3.286,0,0,0,3.283-3.283V21.337h8.97l4.6,6.892,6.257-17.207L85.909,19.7h15.854V16.413H88.073L81.942,2.108l-6.874,18.9L73.1,18.055H62.371V3.283A3.286,3.286,0,0,0,59.088,0H42.675a3.286,3.286,0,0,0-3.283,3.283v8.207H25.179l-3.717,8.673L15.207,2.956l-4.6,6.892H0v3.283H12.368l1.969-2.956,6.874,18.9,6.133-14.306H39.392v8.207a3.286,3.286,0,0,0,3.283,3.283h3.283v6.565H49.24v9.848H41.033A18.128,18.128,0,0,0,32.96,44.58l-1.139.569a8.191,8.191,0,0,0-7.792-5.757H18.055a8.124,8.124,0,0,0-4.924,1.684V34.468a4.924,4.924,0,1,0-9.848,0v24.62A3.286,3.286,0,0,0,0,62.371v3.283a3.286,3.286,0,0,0,3.283,3.283H8.207V87.009A8.2,8.2,0,1,0,18.055,87V68.936H83.708V87a8.207,8.207,0,1,0,9.848,0V68.936H98.48a3.286,3.286,0,0,0,3.283-3.283V62.371a3.286,3.286,0,0,0-3.283-3.283H98.4A18.072,18.072,0,0,0,80.425,42.675h-27.9V32.827ZM18.055,42.675h5.975a4.924,4.924,0,1,1,0,9.848H18.055a4.924,4.924,0,1,1,0-9.848ZM24.62,55.805a4.917,4.917,0,0,1,4.622,3.283H13.433a4.917,4.917,0,0,1,4.622-3.283ZM13.131,54.122c.018.014.033.03.05.042-.018.013-.032.028-.05.042ZM6.565,34.468a1.641,1.641,0,1,1,3.283,0v24.62H6.565ZM13.131,98.48a4.93,4.93,0,0,1-4.924-4.924,4.855,4.855,0,0,1,.31-1.618,4.9,4.9,0,0,0,9.228,0,4.857,4.857,0,0,1,.31,1.616A4.93,4.93,0,0,1,13.131,98.48Zm1.641-8.207a1.641,1.641,0,1,1-3.283,0V68.936h3.283Zm73.86,8.207a4.93,4.93,0,0,1-4.924-4.924,4.857,4.857,0,0,1,.31-1.616,4.9,4.9,0,0,0,9.228,0,4.857,4.857,0,0,1,.31,1.616A4.93,4.93,0,0,1,88.632,98.48Zm1.641-8.207a1.641,1.641,0,0,1-3.283,0V68.936h3.283ZM95.1,59.088H88.632v3.283H98.48v3.283H3.283V62.371H85.349V59.088H32.661A8.228,8.228,0,0,0,29.2,53.921a8.154,8.154,0,0,0,2.932-5.254l2.3-1.15a14.838,14.838,0,0,1,6.6-1.56H80.425A14.788,14.788,0,0,1,95.1,59.088ZM42.675,3.283H59.088l0,19.7H42.675Zm9.848,22.979v3.283H49.24V26.261Zm0,0" fill="#00274a"/>
</svg>
